<mxfile host="app.diagrams.net" modified="2022-03-05T14:28:21.573Z" agent="5.0 (Windows NT 10.0; Win64; x64) AppleWebKit/537.36 (KHTML, like Gecko) Chrome/98.0.4758.102 Safari/537.36" etag="ahoG6BF3q7Obft0MKDtO" version="16.6.5" type="github">
  <diagram id="q_7db5zlDjR9PL1bmyM5" name="Page-1">
    <mxGraphModel dx="1038" dy="556" grid="1" gridSize="10" guides="1" tooltips="1" connect="1" arrows="1" fold="1" page="1" pageScale="1" pageWidth="850" pageHeight="1100" math="0" shadow="0">
      <root>
        <mxCell id="0" />
        <mxCell id="1" parent="0" />
        <mxCell id="Ge-XKTXHq-U5XAmgt22h-1" value="Print balance" style="ellipse;whiteSpace=wrap;html=1;fontSize=20;" vertex="1" parent="1">
          <mxGeometry x="290" y="150" width="230" height="100" as="geometry" />
        </mxCell>
        <mxCell id="Ge-XKTXHq-U5XAmgt22h-2" value="Use case : ( include / extends )" style="text;align=center;fontStyle=1;verticalAlign=middle;spacingLeft=3;spacingRight=3;strokeColor=none;rotatable=0;points=[[0,0.5],[1,0.5]];portConstraint=eastwest;fontSize=20;" vertex="1" parent="1">
          <mxGeometry x="40" y="40" width="320" height="70" as="geometry" />
        </mxCell>
        <mxCell id="Ge-XKTXHq-U5XAmgt22h-4" value="See balance" style="ellipse;whiteSpace=wrap;html=1;fontSize=20;" vertex="1" parent="1">
          <mxGeometry x="100" y="340" width="220" height="90" as="geometry" />
        </mxCell>
        <mxCell id="Ge-XKTXHq-U5XAmgt22h-5" value="Print Ticket" style="ellipse;whiteSpace=wrap;html=1;fontSize=20;" vertex="1" parent="1">
          <mxGeometry x="610" y="340" width="210" height="90" as="geometry" />
        </mxCell>
        <mxCell id="Ge-XKTXHq-U5XAmgt22h-6" value="include" style="endArrow=open;endSize=12;dashed=1;html=1;rounded=0;fontSize=20;entryX=0;entryY=1;entryDx=0;entryDy=0;" edge="1" parent="1" source="Ge-XKTXHq-U5XAmgt22h-4" target="Ge-XKTXHq-U5XAmgt22h-1">
          <mxGeometry width="160" relative="1" as="geometry">
            <mxPoint x="340" y="290" as="sourcePoint" />
            <mxPoint x="500" y="290" as="targetPoint" />
          </mxGeometry>
        </mxCell>
        <mxCell id="Ge-XKTXHq-U5XAmgt22h-7" value="include" style="endArrow=open;endSize=12;dashed=1;html=1;rounded=0;fontSize=20;exitX=0.074;exitY=0.182;exitDx=0;exitDy=0;exitPerimeter=0;" edge="1" parent="1" source="Ge-XKTXHq-U5XAmgt22h-5" target="Ge-XKTXHq-U5XAmgt22h-1">
          <mxGeometry width="160" relative="1" as="geometry">
            <mxPoint x="340" y="290" as="sourcePoint" />
            <mxPoint x="500" y="290" as="targetPoint" />
            <Array as="points">
              <mxPoint x="510" y="270" />
            </Array>
          </mxGeometry>
        </mxCell>
      </root>
    </mxGraphModel>
  </diagram>
</mxfile>
